<svg xmlns="http://www.w3.org/2000/svg" viewBox="0 0 1440 320"><path fill="#0099ff" fill-opacity="1" d="M0,192L30,165.3C60,139,120,85,180,90.7C240,96,300,160,360,197.3C420,235,480,245,540,256C600,267,660,277,720,245.3C780,213,840,139,900,112C960,85,1020,107,1080,128C1140,149,1200,171,1260,197.3C1320,224,1380,256,1410,272L1440,288L1440,320L1410,320C1380,320,1320,320,1260,320C1200,320,1140,320,1080,320C1020,320,960,320,900,320C840,320,780,320,720,320C660,320,600,320,540,320C480,320,420,320,360,320C300,320,240,320,180,320C120,320,60,320,30,320L0,320Z"></path></svg>